<?xml version="1.0" encoding="UTF-8" standalone="no"?>
<svg
   version="1.1"
   width="48"
   height="48"
   x="0"
   y="0"
   viewBox="0 0 48 48"
   xml:space="preserve"
   class=""
   id="svg10"
   sodipodi:docname="database.svg"
   inkscape:version="1.2.2 (b0a8486541, 2022-12-01)"
   xmlns:inkscape="http://www.inkscape.org/namespaces/inkscape"
   xmlns:sodipodi="http://sodipodi.sourceforge.net/DTD/sodipodi-0.dtd"
   xmlns="http://www.w3.org/2000/svg"
   xmlns:svg="http://www.w3.org/2000/svg"><defs
     id="defs14" /><sodipodi:namedview
     id="namedview12"
     pagecolor="#ffffff"
     bordercolor="#000000"
     borderopacity="0.25"
     inkscape:showpageshadow="2"
     inkscape:pageopacity="0.0"
     inkscape:pagecheckerboard="0"
     inkscape:deskcolor="#d1d1d1"
     showgrid="false"
     inkscape:zoom="2.0058594"
     inkscape:cx="253.25803"
     inkscape:cy="256.49854"
     inkscape:window-width="2560"
     inkscape:window-height="1372"
     inkscape:window-x="0"
     inkscape:window-y="0"
     inkscape:window-maximized="1"
     inkscape:current-layer="svg10" /><g
     id="g8"
     transform="scale(0.09375)"><path
       d="m 40.96,223.171 v 95.334 c 32.584,32.256 106.926,50.135 215.04,50.135 108.114,0 182.456,-17.879 215.04,-50.135 V 223.171 C 435.63,247.276 371.343,266.24 256,266.24 140.657,266.24 76.37,247.276 40.96,223.171 Z"
       fill="#868e96"
       opacity="1"
       data-original="#000000"
       class=""
       id="path2" /><path
       d="M 40.96,346.051 V 440.32 C 40.96,487.383 149.135,512 256,512 362.865,512 471.04,487.383 471.04,440.32 V 346.051 C 435.63,370.156 371.343,389.12 256,389.12 140.657,389.12 76.37,370.156 40.96,346.051 Z M 256,0 C 149.135,0 40.96,24.617 40.96,71.68 v 1.065 c 32.584,32.256 106.926,50.135 215.04,50.135 108.114,0 182.456,-17.879 215.04,-50.135 V 71.68 C 471.04,24.617 362.865,0 256,0 Z"
       fill="#868e96"
       opacity="1"
       data-original="#000000"
       class=""
       id="path4" /><path
       d="m 40.96,100.291 v 95.334 c 32.584,32.256 106.926,50.135 215.04,50.135 108.114,0 182.456,-17.879 215.04,-50.135 V 100.291 C 435.63,124.396 371.343,143.36 256,143.36 140.657,143.36 76.37,124.396 40.96,100.291 Z"
       fill="#868e96"
       opacity="1"
       data-original="#000000"
       class=""
       id="path6" /></g></svg>
