<?xml version="1.0" encoding="UTF-8" standalone="no"?>
<svg
   version="1.1"
   width="48"
   height="48"
   x="0"
   y="0"
   viewBox="0 0 48 48"
   xml:space="preserve"
   class=""
   id="svg8"
   sodipodi:docname="docker.svg"
   inkscape:version="1.2.2 (b0a8486541, 2022-12-01)"
   xmlns:inkscape="http://www.inkscape.org/namespaces/inkscape"
   xmlns:sodipodi="http://sodipodi.sourceforge.net/DTD/sodipodi-0.dtd"
   xmlns="http://www.w3.org/2000/svg"
   xmlns:svg="http://www.w3.org/2000/svg"><defs
     id="defs12" /><sodipodi:namedview
     id="namedview10"
     pagecolor="#ffffff"
     bordercolor="#000000"
     borderopacity="0.25"
     inkscape:showpageshadow="2"
     inkscape:pageopacity="0.0"
     inkscape:pagecheckerboard="0"
     inkscape:deskcolor="#d1d1d1"
     showgrid="false"
     inkscape:zoom="2.0058594"
     inkscape:cx="253.25803"
     inkscape:cy="256.49854"
     inkscape:window-width="2560"
     inkscape:window-height="1372"
     inkscape:window-x="0"
     inkscape:window-y="0"
     inkscape:window-maximized="1"
     inkscape:current-layer="svg8" /><g
     id="g6"
     transform="matrix(0.09375016,0,0,0.09375016,-8.1791711e-5,8.8191879e-6)"><path
       d="m 506.983,211.064 c -1.362,-1.075 -14.333,-10.893 -41.71,-10.893 -7.238,0 -14.405,0.645 -21.571,1.863 -5.303,-36.263 -35.26,-53.965 -36.621,-54.753 l -7.31,-4.228 -4.802,6.952 c -6.02,9.388 -10.463,19.708 -13.043,30.53 -4.873,20.711 -1.935,40.133 8.6,56.759 -12.685,7.095 -33.11,8.815 -37.195,8.958 H 16 c -8.815,0 -15.981,7.167 -15.981,15.91 -0.358,29.526 4.587,58.909 14.763,86.644 11.61,30.458 28.881,52.889 51.384,66.649 25.226,15.408 66.148,24.223 112.587,24.223 20.998,0.072 41.925,-1.863 62.493,-5.662 a 258.754,258.754 0 0 0 81.556,-29.67 c 20.855,-12.112 39.703,-27.52 55.685,-45.579 26.731,-30.243 42.641,-63.926 54.466,-93.883 h 4.73 c 29.24,0 47.228,-11.682 57.189,-21.5 a 61.665,61.665 0 0 0 15.05,-22.36 L 512,214.861 Z"
       fill="#868e96"
       opacity="1"
       data-original="#000000"
       id="path2" /><path
       d="m 47.246,236.363 h 45.221 c 2.15,0 3.942,-1.792 3.942,-3.942 v -40.276 a 3.93,3.93 0 0 0 -3.942,-3.942 H 47.246 c -2.15,0 -3.942,1.792 -3.942,3.942 v 40.276 c 0,2.15 1.792,3.942 3.942,3.942 m 62.278,0 h 45.221 c 2.15,0 3.942,-1.792 3.942,-3.942 v -40.276 a 3.93,3.93 0 0 0 -3.942,-3.942 h -45.221 a 3.93,3.93 0 0 0 -3.942,3.942 v 40.276 c 0,2.15 1.792,3.942 3.942,3.942 m 63.281,0 h 45.221 c 2.15,0 3.942,-1.792 3.942,-3.942 v -40.276 a 3.93,3.93 0 0 0 -3.942,-3.942 h -45.221 c -2.15,0 -3.942,1.792 -3.942,3.942 v 40.276 a 3.93,3.93 0 0 0 3.942,3.942 m 62.493,0 h 45.221 c 2.15,0 3.942,-1.792 3.942,-3.942 v -40.276 a 3.93,3.93 0 0 0 -3.942,-3.942 h -45.221 c -2.15,0 -3.942,1.792 -3.942,3.942 v 40.276 a 3.93,3.93 0 0 0 3.942,3.942 M 109.524,178.456 h 45.221 c 2.15,0 3.942,-1.792 3.942,-3.942 v -40.276 c 0,-2.15 -1.792,-3.942 -3.942,-3.942 h -45.221 c -2.15,0 -3.942,1.792 -3.942,3.942 v 40.276 c 0,2.151 1.792,3.942 3.942,3.942 m 63.281,0 h 45.221 c 2.15,0 3.942,-1.792 3.942,-3.942 v -40.276 c 0,-2.15 -1.792,-3.942 -3.942,-3.942 h -45.221 c -2.15,0 -3.942,1.792 -3.942,3.942 v 40.276 a 3.93,3.93 0 0 0 3.942,3.942 m 62.493,0 h 45.221 a 3.93,3.93 0 0 0 3.942,-3.942 v -40.276 c 0,-2.15 -1.792,-3.942 -3.942,-3.942 h -45.221 c -2.15,0 -3.942,1.792 -3.942,3.942 v 40.276 a 3.93,3.93 0 0 0 3.942,3.942 m 0,-57.977 h 45.221 c 2.15,0 3.942,-1.792 3.942,-3.942 V 76.261 c 0,-2.15 -1.792,-3.942 -3.942,-3.942 h -45.221 c -2.15,0 -3.942,1.792 -3.942,3.942 v 40.276 c 0,2.222 1.72,3.942 3.942,3.942 m 62.994,115.884 h 45.221 c 2.15,0 3.942,-1.792 3.942,-3.942 v -40.276 a 3.93,3.93 0 0 0 -3.942,-3.942 h -45.221 c -2.15,0 -3.942,1.792 -3.942,3.942 v 40.276 c 0,2.15 1.792,3.942 3.942,3.942"
       fill="#868e96"
       opacity="1"
       data-original="#000000"
       id="path4" /></g></svg>
