<?xml version="1.0" encoding="UTF-8" standalone="no"?>
<svg
   height="40"
   viewBox="0 0 40 40"
   width="40"
   version="1.1"
   id="svg11"
   sodipodi:docname="message.svg"
   inkscape:version="1.2.2 (b0a8486541, 2022-12-01)"
   xmlns:inkscape="http://www.inkscape.org/namespaces/inkscape"
   xmlns:sodipodi="http://sodipodi.sourceforge.net/DTD/sodipodi-0.dtd"
   xmlns="http://www.w3.org/2000/svg"
   xmlns:svg="http://www.w3.org/2000/svg">
  <defs
     id="defs15" />
  <sodipodi:namedview
     id="namedview13"
     pagecolor="#ffffff"
     bordercolor="#000000"
     borderopacity="0.25"
     inkscape:showpageshadow="2"
     inkscape:pageopacity="0.0"
     inkscape:pagecheckerboard="0"
     inkscape:deskcolor="#d1d1d1"
     showgrid="false"
     inkscape:zoom="2.0058594"
     inkscape:cx="253.25803"
     inkscape:cy="256.49854"
     inkscape:window-width="2560"
     inkscape:window-height="1372"
     inkscape:window-x="0"
     inkscape:window-y="0"
     inkscape:window-maximized="1"
     inkscape:current-layer="svg11" />
  <g
     id="Layer_2"
     data-name="Layer 2"
     transform="scale(0.078125)">
    <g
       id="message">
      <circle
         id="background"
         cx="256"
         cy="256"
         fill="#ff2147"
         r="256" />
      <g
         fill="#ffffff"
         id="g7">
        <path
           d="m 256.41,243 129.14,-78.56 a 29.7,29.7 0 0 0 -19.44,-7.2 H 145.89 a 29.8,29.8 0 0 0 -9.86,1.67 z"
           id="path3" />
        <path
           d="m 261.68,265.34 a 10.91,10.91 0 0 1 -11.94,-0.37 L 119.14,173.75 A 29.67,29.67 0 0 0 116,187.08 v 137.84 a 29.89,29.89 0 0 0 29.89,29.89 H 366.11 A 29.89,29.89 0 0 0 396,324.92 V 187.08 a 30.4,30.4 0 0 0 -0.19,-3.33 z"
           id="path5" />
      </g>
    </g>
  </g>
</svg>
