<?xml version="1.0" encoding="UTF-8" standalone="no"?>
<svg
   height="40"
   viewBox="0 0 11.875 11.875"
   width="40"
   version="1.1"
   id="svg6"
   sodipodi:docname="facebook.svg"
   inkscape:version="1.2.2 (b0a8486541, 2022-12-01)"
   xmlns:inkscape="http://www.inkscape.org/namespaces/inkscape"
   xmlns:sodipodi="http://sodipodi.sourceforge.net/DTD/sodipodi-0.dtd"
   xmlns="http://www.w3.org/2000/svg"
   xmlns:svg="http://www.w3.org/2000/svg">
  <defs
     id="defs10" />
  <sodipodi:namedview
     id="namedview8"
     pagecolor="#ffffff"
     bordercolor="#000000"
     borderopacity="0.25"
     inkscape:showpageshadow="2"
     inkscape:pageopacity="0.0"
     inkscape:pagecheckerboard="0"
     inkscape:deskcolor="#d1d1d1"
     showgrid="false"
     inkscape:zoom="2.0058594"
     inkscape:cx="253.25803"
     inkscape:cy="256.49854"
     inkscape:window-width="2560"
     inkscape:window-height="1372"
     inkscape:window-x="0"
     inkscape:window-y="0"
     inkscape:window-maximized="1"
     inkscape:current-layer="svg6" />
  <g
     id="Layer_2"
     data-name="Layer 2"
     transform="scale(0.078125)">
    <g
       id="_01.facebook"
       data-name="01.facebook">
      <circle
         id="background"
         cx="76"
         cy="76"
         fill="#334c8c"
         r="76" />
      <path
         id="icon"
         d="M 95.26,68.81 94,79.39 a 2,2 0 0 1 -2,1.78 H 81 v 31.4 A 1.42,1.42 0 0 1 79.6,114 H 68.39 a 1.42,1.42 0 0 1 -1.4,-1.44 l 0.06,-31.39 h -8.33 a 2,2 0 0 1 -2,-2 V 68.59 a 2,2 0 0 1 2,-2 H 67 V 56.33 C 67,44.46 74.06,38 84.4,38 h 8.47 a 2,2 0 0 1 2,2 v 8.91 a 2,2 0 0 1 -2,2 H 87.68 C 82.06,51 81,53.69 81,57.71 v 8.85 h 12.31 a 2,2 0 0 1 1.95,2.25 z"
         fill="#ffffff" />
    </g>
  </g>
</svg>
