<?xml version="1.0" encoding="UTF-8" standalone="no"?>
<svg
   version="1.1"
   width="48"
   height="48"
   x="0"
   y="0"
   viewBox="0 0 48 48"
   xml:space="preserve"
   class=""
   id="svg4022"
   sodipodi:docname="flame.svg"
   inkscape:version="1.2.2 (b0a8486541, 2022-12-01)"
   xmlns:inkscape="http://www.inkscape.org/namespaces/inkscape"
   xmlns:sodipodi="http://sodipodi.sourceforge.net/DTD/sodipodi-0.dtd"
   xmlns="http://www.w3.org/2000/svg"
   xmlns:svg="http://www.w3.org/2000/svg"><defs
     id="defs4026" /><sodipodi:namedview
     id="namedview4024"
     pagecolor="#ffffff"
     bordercolor="#000000"
     borderopacity="0.25"
     inkscape:showpageshadow="2"
     inkscape:pageopacity="0.0"
     inkscape:pagecheckerboard="0"
     inkscape:deskcolor="#d1d1d1"
     showgrid="false"
     inkscape:zoom="2.0058594"
     inkscape:cx="253.25803"
     inkscape:cy="256.49854"
     inkscape:window-width="2560"
     inkscape:window-height="1372"
     inkscape:window-x="0"
     inkscape:window-y="0"
     inkscape:window-maximized="1"
     inkscape:current-layer="svg4022" /><g
     id="g4020"
     transform="matrix(0.09375,0,0,0.09375,7.2972656,0)"><path
       d="M 178.164,512 C 79.922,512 0,431.633 0,332.848 c 0,-43.051 14.664,-72.32 31.648,-106.211 9.426,-18.82 19.176,-38.278 28.18,-63.106 l 9.367,-25.832 c 13.813,3.383 9.133,2.239 22.942,5.621 l -3.633,27.239 c -2.973,22.257 1.09,47.504 11.14,69.261 4.262,9.23 9.407,17.422 15.118,24.23 -1.98,-36.14 1.722,-70.976 11.074,-103.937 9.805,-34.55 25.535,-66.406 46.758,-94.687 C 199.008,30.234 229.344,7.25 243.41,5.359 L 283.277,0 256.45,29.977 c -12.187,13.613 -18.898,31.187 -18.898,49.484 0,35.367 21.695,60.465 46.812,89.527 16.106,18.63 34.356,39.746 48.18,65.688 16.004,30.031 23.781,62.14 23.781,98.172 0,98.785 -79.922,179.152 -178.16,179.152 z m 0,0"
       fill="#868e96"
       opacity="1"
       data-original="#000000"
       class=""
       id="path4018" /></g></svg>
