<?xml version="1.0" encoding="UTF-8" standalone="no"?>
<svg
   id="Bold"
   enable-background="new 0 0 24 24"
   height="40"
   viewBox="0 0 1.875 1.875"
   width="40"
   version="1.1"
   sodipodi:docname="github.svg"
   inkscape:version="1.2.2 (b0a8486541, 2022-12-01)"
   xmlns:inkscape="http://www.inkscape.org/namespaces/inkscape"
   xmlns:sodipodi="http://sodipodi.sourceforge.net/DTD/sodipodi-0.dtd"
   xmlns="http://www.w3.org/2000/svg"
   xmlns:svg="http://www.w3.org/2000/svg">
  <defs
     id="defs7" />
  <sodipodi:namedview
     id="namedview5"
     pagecolor="#ffffff"
     bordercolor="#000000"
     borderopacity="0.25"
     inkscape:showpageshadow="2"
     inkscape:pageopacity="0.0"
     inkscape:pagecheckerboard="0"
     inkscape:deskcolor="#d1d1d1"
     showgrid="false"
     inkscape:zoom="2.0058594"
     inkscape:cx="253.25803"
     inkscape:cy="256.49854"
     inkscape:window-width="2560"
     inkscape:window-height="1372"
     inkscape:window-x="0"
     inkscape:window-y="0"
     inkscape:window-maximized="1"
     inkscape:current-layer="Bold" />
  <path
     d="m 0.9375,0.03904934 c -0.51796875,0 -0.9375,0.4125 -0.9375,0.92125 0,0.40710936 0.26859375,0.75234366 0.64101562,0.87406246 0.046875,0.00867 0.0640625,-0.019844 0.0640625,-0.044297 0,-0.021875 -7.8124e-4,-0.079844 -0.001172,-0.1566406 C 0.443125,1.6889712 0.388125,1.5098305 0.388125,1.5098305 0.34546875,1.4035024 0.28382813,1.3750649 0.28382813,1.3750649 c -0.0849219,-0.057109 0.006562,-0.055937 0.006562,-0.055937 0.0941406,0.00641 0.14359374,0.094922 0.14359374,0.094922 0.0835938,0.1408594 0.21945313,0.1001563 0.27304688,0.076641 0.008437,-0.059609 0.0325781,-0.1001562 0.059375,-0.1232031 C 0.55820312,1.3444399 0.339375,1.2652212 0.339375,0.91225244 c 0,-0.1005469 0.0363281,-0.1827344 0.0964844,-0.2471875 -0.0105469,-0.023281 -0.0421875,-0.1169531 0.008203,-0.2438281 0,0 0.0785156,-0.0246875 0.2578125,0.0944531 0.075,-0.0204687 0.1546875,-0.030625 0.234375,-0.0310937 0.0796875,4.6874e-4 0.159375,0.010625 0.234375,0.0310937 0.1781251,-0.1191406 0.2566407,-0.0944531 0.2566407,-0.0944531 0.050391,0.126875 0.01875,0.2205469 0.00938,0.2438281 0.059766,0.064453 0.096094,0.1466406 0.096094,0.2471875 0,0.35390626 -0.2191407,0.43179686 -0.4277344,0.45445306 0.032812,0.027656 0.063281,0.084141 0.063281,0.1704688 0,0.1232812 -0.00117,0.2223437 -0.00117,0.2522656 0,0.024141 0.016406,0.052969 0.064453,0.04375 C 1.6066406,1.7122524 1.875,1.3667837 1.875,0.96029934 c 0,-0.50875 -0.4197656,-0.92125 -0.9375,-0.92125 z"
     id="path2"
     style="stroke-width:0.078125" />
</svg>
