<?xml version="1.0" encoding="UTF-8" standalone="no"?>
<svg
   version="1.1"
   width="40"
   height="40"
   x="0"
   y="0"
   viewBox="0 0 40.046797 40.046797"
   xml:space="preserve"
   class=""
   id="svg12"
   sodipodi:docname="gitlab.svg"
   inkscape:version="1.2.2 (b0a8486541, 2022-12-01)"
   xmlns:inkscape="http://www.inkscape.org/namespaces/inkscape"
   xmlns:sodipodi="http://sodipodi.sourceforge.net/DTD/sodipodi-0.dtd"
   xmlns="http://www.w3.org/2000/svg"
   xmlns:svg="http://www.w3.org/2000/svg"><defs
     id="defs16" /><sodipodi:namedview
     id="namedview14"
     pagecolor="#ffffff"
     bordercolor="#000000"
     borderopacity="0.25"
     inkscape:showpageshadow="2"
     inkscape:pageopacity="0.0"
     inkscape:pagecheckerboard="0"
     inkscape:deskcolor="#d1d1d1"
     showgrid="false"
     inkscape:zoom="2.0058594"
     inkscape:cx="253.25803"
     inkscape:cy="256.49854"
     inkscape:window-width="2560"
     inkscape:window-height="1372"
     inkscape:window-x="0"
     inkscape:window-y="0"
     inkscape:window-maximized="1"
     inkscape:current-layer="svg12" /><g
     id="g304"
     transform="scale(0.078125)"><circle
       r="256.2995"
       cx="256.2995"
       cy="256.2995"
       fill="#fca326"
       shape="circle"
       id="circle2" /><g
       transform="matrix(0.7,0,0,0.7,76.889703,76.88985)"
       id="g10"><path
         d="M 457.21,512.599 H 55.389 C 24.799,512.599 0,487.8 0,457.21 V 55.389 C 0,24.799 24.799,0 55.389,0 h 401.82 c 30.591,0 55.389,24.799 55.389,55.389 v 401.82 c 0.001,30.591 -24.798,55.39 -55.388,55.39 z"
         fill="#fca326"
         opacity="1"
         data-original="#000000"
         class=""
         id="path4" /><path
         d="M 457.21,512.599 H 55.389 C 24.799,512.599 0,487.8 0,457.21 V 55.389 C 0,24.799 24.799,0 55.389,0 h 401.82 c 30.591,0 55.389,24.799 55.389,55.389 v 401.82 c 0.001,30.591 -24.798,55.39 -55.388,55.39 z"
         fill="#fca326"
         opacity="1"
         data-original="#000000"
         class=""
         id="path6" /><path
         fill="#ffffff"
         d="m 445.696,277.639 c 0,0 -20.331,-62.617 -20.336,-62.628 L 385.018,90.805 c -2.184,-6.476 -7.997,-10.646 -14.825,-10.646 l -0.088,10e-4 c -6.829,0.036 -12.607,4.248 -14.72,10.738 l -38.376,118.15 H 195.66 L 157.212,90.891 C 155.1,84.407 149.323,80.195 142.492,80.159 l -0.088,-0.001 c -6.828,0 -12.641,4.171 -14.857,10.742 l -40.244,124.129 -20.402,62.61 a 22.466,22.466 0 0 0 8.163,25.171 L 251.2,430.786 a 8.788,8.788 0 0 0 4.999,1.65 8.786,8.786 0 0 0 5.169,-1.647 L 437.534,302.808 a 22.461,22.461 0 0 0 8.162,-25.169 z M 399.427,226.338 279.7,379.744 329.572,226.338 Z m -198.149,0 H 311.389 L 256.294,395.81 Z m -18.18,0 L 232.9,379.751 113.238,226.338 Z M 370.217,101.209 405.243,209.047 H 335.19 Z m -227.832,-0.003 35.091,107.84 H 107.422 Z M 85.232,288.823 a 5.212,5.212 0 0 1 -1.886,-5.836 l 15.366,-47.157 22.369,28.679 90.661,116.233 z m 342.137,-0.002 -126.493,91.894 35.877,-45.969 77.191,-98.904 15.304,47.137 a 5.21,5.21 0 0 1 -1.879,5.842 z"
         opacity="1"
         data-original="#ffffff"
         class=""
         id="path8" /></g></g></svg>
