<?xml version="1.0" encoding="UTF-8" standalone="no"?>
<svg
   version="1.1"
   width="48"
   height="48"
   x="0"
   y="0"
   viewBox="0 0 48 48"
   xml:space="preserve"
   class=""
   id="svg8"
   sodipodi:docname="js.svg"
   inkscape:version="1.2.2 (b0a8486541, 2022-12-01)"
   xmlns:inkscape="http://www.inkscape.org/namespaces/inkscape"
   xmlns:sodipodi="http://sodipodi.sourceforge.net/DTD/sodipodi-0.dtd"
   xmlns="http://www.w3.org/2000/svg"
   xmlns:svg="http://www.w3.org/2000/svg"><defs
     id="defs12" /><sodipodi:namedview
     id="namedview10"
     pagecolor="#ffffff"
     bordercolor="#000000"
     borderopacity="0.25"
     inkscape:showpageshadow="2"
     inkscape:pageopacity="0.0"
     inkscape:pagecheckerboard="0"
     inkscape:deskcolor="#d1d1d1"
     showgrid="false"
     inkscape:zoom="2.0058594"
     inkscape:cx="253.25803"
     inkscape:cy="216.61538"
     inkscape:window-width="2560"
     inkscape:window-height="1372"
     inkscape:window-x="0"
     inkscape:window-y="0"
     inkscape:window-maximized="1"
     inkscape:current-layer="svg8" /><g
     id="g6"
     transform="scale(0.09375)"><path
       fill="#868e96"
       d="M 0,0 H 512 V 512 H 0 Z"
       opacity="1"
       data-original="#ffdf00"
       class=""
       id="path2" /><path
       d="m 343.934,400.002 c 10.313,16.839 23.731,29.216 47.462,29.216 19.935,0 32.67,-9.964 32.67,-23.731 0,-16.498 -13.084,-22.341 -35.027,-31.939 l -12.028,-5.161 c -34.719,-14.791 -57.783,-33.321 -57.783,-72.493 0,-36.084 27.494,-63.553 70.461,-63.553 30.59,0 52.582,10.646 68.429,38.522 l -37.465,24.056 c -8.249,-14.791 -17.148,-20.618 -30.964,-20.618 -14.092,0 -23.024,8.94 -23.024,20.618 0,14.434 8.94,20.277 29.582,29.217 l 12.028,5.152 c 40.879,17.53 63.959,35.401 63.959,75.581 0,43.317 -34.028,67.048 -79.726,67.048 -44.682,0 -73.549,-21.293 -87.674,-49.201 z m -169.96,4.169 c 7.558,13.41 14.434,24.747 30.964,24.747 15.807,0 25.779,-6.185 25.779,-30.232 V 235.089 h 48.112 v 164.246 c 0,49.818 -29.208,72.493 -71.843,72.493 -38.522,0 -60.83,-19.936 -72.176,-43.947 z"
       fill="#ffffff"
       opacity="1"
       data-original="#000000"
       class=""
       id="path4" /></g></svg>
