<?xml version="1.0" encoding="UTF-8" standalone="no"?>
<!-- Generator: Adobe Illustrator 18.0.0, SVG Export Plug-In . SVG Version: 6.00 Build 0)  -->

<svg
   version="1.1"
   id="Capa_1"
   x="0px"
   y="0px"
   viewBox="0 0 40 40"
   xml:space="preserve"
   sodipodi:docname="linkedin.svg"
   width="40"
   height="40"
   inkscape:version="1.2.2 (b0a8486541, 2022-12-01)"
   xmlns:inkscape="http://www.inkscape.org/namespaces/inkscape"
   xmlns:sodipodi="http://sodipodi.sourceforge.net/DTD/sodipodi-0.dtd"
   xmlns="http://www.w3.org/2000/svg"
   xmlns:svg="http://www.w3.org/2000/svg"><defs
   id="defs43" /><sodipodi:namedview
   id="namedview41"
   pagecolor="#ffffff"
   bordercolor="#000000"
   borderopacity="0.25"
   inkscape:showpageshadow="2"
   inkscape:pageopacity="0.0"
   inkscape:pagecheckerboard="0"
   inkscape:deskcolor="#d1d1d1"
   showgrid="false"
   inkscape:zoom="9.1536241"
   inkscape:cx="55.497145"
   inkscape:cy="56.207246"
   inkscape:window-width="2560"
   inkscape:window-height="1372"
   inkscape:window-x="0"
   inkscape:window-y="0"
   inkscape:window-maximized="1"
   inkscape:current-layer="Capa_1" />
<g
   id="g8"
   transform="matrix(0.35651895,0,0,0.35651895,9.5221328e-8,3.5641833e-4)">
	<circle
   style="fill:#007ab9"
   cx="56.098"
   cy="56.097"
   r="56.098"
   id="circle2" />
	<g
   id="g6">
		<path
   style="fill:#f1f2f2"
   d="M 89.616,60.611 V 83.739 H 76.207 V 62.161 c 0,-5.418 -1.936,-9.118 -6.791,-9.118 -3.705,0 -5.906,2.491 -6.878,4.903 -0.353,0.862 -0.444,2.059 -0.444,3.268 v 22.524 h -13.41 c 0,0 0.18,-36.546 0,-40.329 h 13.411 v 5.715 c -0.027,0.045 -0.065,0.089 -0.089,0.132 h 0.089 v -0.132 c 1.782,-2.742 4.96,-6.662 12.085,-6.662 8.822,0 15.436,5.764 15.436,18.149 z M 34.656,23.969 c -4.587,0 -7.588,3.011 -7.588,6.967 0,3.872 2.914,6.97 7.412,6.97 h 0.087 c 4.677,0 7.585,-3.098 7.585,-6.97 -0.089,-3.956 -2.908,-6.967 -7.496,-6.967 z m -6.791,59.77 H 41.27 V 43.409 H 27.865 Z"
   id="path4" />
	</g>
</g>
<g
   id="g10">
</g>
<g
   id="g12">
</g>
<g
   id="g14">
</g>
<g
   id="g16">
</g>
<g
   id="g18">
</g>
<g
   id="g20">
</g>
<g
   id="g22">
</g>
<g
   id="g24">
</g>
<g
   id="g26">
</g>
<g
   id="g28">
</g>
<g
   id="g30">
</g>
<g
   id="g32">
</g>
<g
   id="g34">
</g>
<g
   id="g36">
</g>
<g
   id="g38">
</g>
</svg>
