<?xml version="1.0" encoding="UTF-8" standalone="no"?>
<svg
   version="1.1"
   width="48"
   height="48"
   x="0"
   y="0"
   viewBox="0 0 48 48"
   xml:space="preserve"
   class=""
   id="svg26"
   sodipodi:docname="nodejs.svg"
   inkscape:version="1.2.2 (b0a8486541, 2022-12-01)"
   xmlns:inkscape="http://www.inkscape.org/namespaces/inkscape"
   xmlns:sodipodi="http://sodipodi.sourceforge.net/DTD/sodipodi-0.dtd"
   xmlns="http://www.w3.org/2000/svg"
   xmlns:svg="http://www.w3.org/2000/svg"><defs
     id="defs30" /><sodipodi:namedview
     id="namedview28"
     pagecolor="#ffffff"
     bordercolor="#000000"
     borderopacity="0.25"
     inkscape:showpageshadow="2"
     inkscape:pageopacity="0.0"
     inkscape:pagecheckerboard="0"
     inkscape:deskcolor="#d1d1d1"
     showgrid="false"
     inkscape:zoom="2.0058594"
     inkscape:cx="253.25803"
     inkscape:cy="256.49854"
     inkscape:window-width="2560"
     inkscape:window-height="1372"
     inkscape:window-x="0"
     inkscape:window-y="0"
     inkscape:window-maximized="1"
     inkscape:current-layer="svg26" /><g
     id="g24"
     transform="matrix(0.09375,0,0,0.09375,-1.2689035e-6,0)"><path
       d="M 512,256 C 512,397.385 397.385,512 256,512 125.555,512 17.899,414.438 2.027,288.298 A 257.45,257.45 0 0 1 0,256 C 0,235.959 2.299,216.451 6.656,197.736 33.029,84.428 134.656,0 256,0 377.041,0 478.469,84.01 505.135,196.901 a 254.539,254.539 0 0 1 6.51,45.641 A 250.4,250.4 0 0 1 512,256 Z"
       fill="#f2f2f2"
       data-original="#f2f2f2"
       class=""
       opacity="0"
       id="path2" /><path
       d="M 243.195,276.559 V 210 L 185.553,176.721 127.912,210 v 66.559 l 57.641,33.279 z"
       fill="#868e96"
       data-original="#3b8739"
       class=""
       opacity="1"
       id="path4" /><path
       d="m 470.204,266.459 37.564,21.692 -37.564,21.692 -57.637,-33.28 v -66.56 l 57.637,-33.28 34.931,20.177 a 254.539,254.539 0 0 1 6.51,45.641 l -21.358,12.33 v -23.186 l -20.083,-11.588 -20.083,11.588 v 23.186 z"
       fill="#868e96"
       data-original="#333333"
       class=""
       opacity="1"
       id="path6" /><path
       d="m 481.392,249.74 v -12.92 l -11.189,-6.46 -11.19,6.46 v 12.92 l 11.19,6.461 z"
       fill="#868e96"
       data-original="#66a060"
       class=""
       opacity="1"
       id="path8" /><path
       d="m 100.686,210.004 v 87.771 L 62.244,275.843 V 230.85 L 43.05,219.763 23.855,230.849 v 44.993 L 2.027,288.298 A 257.45,257.45 0 0 1 0,256 C 0,235.959 2.299,216.451 6.656,197.736 L 43.05,176.723 Z"
       fill="#868e96"
       data-original="#333333"
       class=""
       opacity="1"
       id="path10" /><path
       d="m 127.906,210.001 h 115.281 v 66.557 H 127.906 Z"
       transform="rotate(60,185.553,243.28)"
       fill="#868e96"
       data-original="#6da75d"
       class=""
       opacity="1"
       id="path12" /><path
       d="M 127.912,276.559 147.704,244.283 127.912,210 Z"
       fill="#868e96"
       data-original="#55a344"
       class=""
       opacity="1"
       id="path14" /><path
       d="M 223.979,243.277 243.195,210 185.553,176.721 Z"
       fill="#868e96"
       data-original="#639d57"
       class=""
       opacity="1"
       id="path16" /><path
       d="m 346.551,99.579 v 88.304 l -19.32,-11.16 -57.647,33.28 v 66.56 l 57.647,33.28 57.637,-33.28 V 120.09 Z M 346.446,254.37 327.23,265.467 308.014,254.37 v -22.183 l 19.216,-11.097 19.216,11.097 z"
       fill="#868e96"
       data-original="#333333"
       class=""
       opacity="1"
       id="path18" /><path
       d="m 282.149,358.717 c 0,0 -1.132,-9.729 -11.539,-9.729 -10.408,0 -17.534,1.357 -17.534,7.127 0,5.77 20.25,5.77 27.943,8.032 7.693,2.262 14.48,8.145 11.086,18.553 -3.394,10.408 -13.802,11.539 -29.866,11.539 -16.064,0 -19.685,-13.35 -19.685,-18.553 h 9.05 c 0,0 -1.132,8.145 9.502,9.502 10.634,1.357 20.802,2.121 22.173,-6.108 1.81,-10.861 -34.391,-5.43 -37.559,-16.064 -2.676,-8.985 -1.132,-20.815 16.969,-22.626 18.101,-1.811 28.056,6.181 28.056,18.101 z"
       fill="#868e96"
       data-original="#66a060"
       class=""
       opacity="1"
       id="path20" /><path
       d="m 194.723,401.131 20.008,11.551 c 10.053,5.804 22.619,-1.451 22.619,-13.059 v -57.495 h -8.155 v 55.227 c 0,6.339 -6.862,10.302 -12.353,7.131 l -13.965,-8.062 v -58.94 l 51.043,-29.467 51.043,29.467 v 58.94 l -51.043,29.467 -14.704,-8.489 -9.602,3.872 24.305,14.033 59.198,-34.179 V 332.777 L 253.92,298.6 194.722,332.779 v 68.352 z"
       fill="#868e96"
       data-original="#66a060"
       class=""
       opacity="1"
       id="path22" /></g></svg>
