<?xml version="1.0" encoding="UTF-8" standalone="no"?>
<svg
   version="1.1"
   x="0px"
   y="0px"
   width="48"
   height="48"
   viewBox="0 0 1.6 1.6"
   id="svg10"
   sodipodi:docname="npm.svg"
   inkscape:version="1.2.2 (b0a8486541, 2022-12-01)"
   xmlns:inkscape="http://www.inkscape.org/namespaces/inkscape"
   xmlns:sodipodi="http://sodipodi.sourceforge.net/DTD/sodipodi-0.dtd"
   xmlns="http://www.w3.org/2000/svg"
   xmlns:svg="http://www.w3.org/2000/svg">
  <defs
     id="defs14" />
  <sodipodi:namedview
     id="namedview12"
     pagecolor="#ffffff"
     bordercolor="#000000"
     borderopacity="0.25"
     inkscape:showpageshadow="2"
     inkscape:pageopacity="0.0"
     inkscape:pagecheckerboard="0"
     inkscape:deskcolor="#d1d1d1"
     showgrid="false"
     inkscape:zoom="2.512963"
     inkscape:cx="267.81135"
     inkscape:cy="105.25424"
     inkscape:window-width="2560"
     inkscape:window-height="1372"
     inkscape:window-x="0"
     inkscape:window-y="0"
     inkscape:window-maximized="1"
     inkscape:current-layer="svg10" />
  <g
     id="g3040"
     transform="matrix(0.08888889,0,0,0.08888889,0,0.48888889)">
    <path
       fill="#CB3837"
       d="M 0,0 H 18 V 6 H 9 V 7 H 5 V 6 H 0 Z M 1,5 H 3 V 2 H 4 V 5 H 5 V 1 H 1 Z M 6,1 V 6 H 8 V 5 h 2 V 1 Z M 8,2 H 9 V 4 H 8 Z m 3,-1 v 4 h 2 V 2 h 1 v 3 h 1 V 2 h 1 v 3 h 1 V 1 Z"
       id="path2"
       style="fill:#868e96;fill-opacity:1" />
    <polygon
       fill="#ffffff"
       points="4,2 4,5 5,5 5,1 1,1 1,5 3,5 3,2 "
       id="polygon4" />
    <path
       fill="#ffffff"
       d="M 6,1 V 6 H 8 V 5 h 2 V 1 Z M 9,4 H 8 V 2 h 1 z"
       id="path6" />
    <polygon
       fill="#ffffff"
       points="17,1 11,1 11,5 13,5 13,2 14,2 14,5 15,5 15,2 16,2 16,5 17,5 "
       id="polygon8" />
  </g>
</svg>
