<?xml version="1.0" encoding="UTF-8" standalone="no"?>
<svg
   version="1.1"
   width="20"
   height="20"
   x="0"
   y="0"
   viewBox="0 0 20 20"
   xml:space="preserve"
   class=""
   id="svg6"
   sodipodi:docname="point.svg"
   inkscape:version="1.2.2 (b0a8486541, 2022-12-01)"
   xmlns:inkscape="http://www.inkscape.org/namespaces/inkscape"
   xmlns:sodipodi="http://sodipodi.sourceforge.net/DTD/sodipodi-0.dtd"
   xmlns="http://www.w3.org/2000/svg"
   xmlns:svg="http://www.w3.org/2000/svg"><defs
     id="defs10" /><sodipodi:namedview
     id="namedview8"
     pagecolor="#ffffff"
     bordercolor="#000000"
     borderopacity="0.25"
     inkscape:showpageshadow="2"
     inkscape:pageopacity="0.0"
     inkscape:pagecheckerboard="0"
     inkscape:deskcolor="#d1d1d1"
     showgrid="false"
     inkscape:zoom="2.0058594"
     inkscape:cx="253.25803"
     inkscape:cy="256.49854"
     inkscape:window-width="2560"
     inkscape:window-height="1372"
     inkscape:window-x="0"
     inkscape:window-y="0"
     inkscape:window-maximized="1"
     inkscape:current-layer="svg6" /><g
     transform="matrix(0,-0.0390625,0.0390625,0,2.3578902e-7,20)"
     id="g4"><path
       d="M 30,155.779 H 15 c -8.284,0 -15,6.716 -15,15 v 240 c 0,8.284 6.716,15 15,15 h 15 c 16.569,0 30,-13.431 30,-30 v -210 c 0,-16.568 -13.431,-30 -30,-30 z m 437,0 H 321.211 l -47.52,-47.505 C 246.562,81.13 203.554,78.787 173.613,102.664 L 90,169.56 v 232.601 c 43.198,15.379 88.462,23.619 135,23.619 h 60 c 24.814,0 45,-20.186 45,-45 a 44.65,44.65 0 0 0 -3.164,-16.582 C 345.938,358.998 360,341.493 360,320.78 a 44.65,44.65 0 0 0 -3.164,-16.582 C 375.938,298.998 390,281.493 390,260.78 a 44.63,44.63 0 0 0 -2.578,-15 H 467 c 24.814,0 45,-20.186 45,-45 0,-24.814 -20.186,-45.001 -45,-45.001 z"
       fill="#ffffff"
       opacity="1"
       data-original="#000000"
       class=""
       id="path2" /></g></svg>
