<?xml version="1.0" encoding="UTF-8" standalone="no"?>
<svg
   version="1.1"
   width="48"
   height="48"
   x="0"
   y="0"
   viewBox="0 0 48 48"
   xml:space="preserve"
   class=""
   id="svg8"
   sodipodi:docname="python.svg"
   inkscape:version="1.2.2 (b0a8486541, 2022-12-01)"
   xmlns:inkscape="http://www.inkscape.org/namespaces/inkscape"
   xmlns:sodipodi="http://sodipodi.sourceforge.net/DTD/sodipodi-0.dtd"
   xmlns="http://www.w3.org/2000/svg"
   xmlns:svg="http://www.w3.org/2000/svg"><defs
     id="defs12" /><sodipodi:namedview
     id="namedview10"
     pagecolor="#ffffff"
     bordercolor="#000000"
     borderopacity="0.25"
     inkscape:showpageshadow="2"
     inkscape:pageopacity="0.0"
     inkscape:pagecheckerboard="0"
     inkscape:deskcolor="#d1d1d1"
     showgrid="false"
     inkscape:zoom="2.0058594"
     inkscape:cx="253.25803"
     inkscape:cy="256.49854"
     inkscape:window-width="2560"
     inkscape:window-height="1372"
     inkscape:window-x="0"
     inkscape:window-y="0"
     inkscape:window-maximized="1"
     inkscape:current-layer="svg8" /><g
     id="g6"
     transform="matrix(0.0937501,0,0,0.0937501,-5.3596687e-5,1.6402427e-5)"><path
       d="m 252.985,0.004 c -20.882,0.097 -40.823,1.878 -58.369,4.983 -51.689,9.132 -61.074,28.245 -61.074,63.494 v 46.553 h 122.147 v 15.517 H 87.701 c -35.499,0 -66.584,21.337 -76.306,61.928 -11.215,46.526 -11.712,75.56 0,124.141 8.683,36.161 29.418,61.927 64.917,61.927 h 41.997 V 322.74 c 0,-40.317 34.883,-75.879 76.307,-75.879 h 122.005 c 33.962,0 61.073,-27.963 61.073,-62.07 V 68.481 c 0,-33.102 -27.926,-57.969 -61.073,-63.494 -20.983,-3.493 -42.755,-5.08 -63.636,-4.983 z m -66.057,37.442 c 12.617,0 22.92,10.472 22.92,23.347 0,12.83 -10.303,23.205 -22.92,23.205 -12.662,0 -22.92,-10.375 -22.92,-23.205 0,-12.876 10.258,-23.347 22.92,-23.347 z"
       fill="#868e96"
       opacity="1"
       data-original="#000000"
       class=""
       id="path2" /><path
       d="m 392.927,130.551 v 54.24 c 0,42.052 -35.652,77.445 -76.306,77.445 H 194.616 c -33.419,0 -61.074,28.602 -61.074,62.07 v 116.31 c 0,33.102 28.785,52.573 61.074,62.07 38.665,11.369 75.743,13.424 122.005,0 30.751,-8.903 61.073,-26.821 61.073,-62.07 V 394.063 H 255.689 v -15.518 h 183.079 c 35.499,0 48.728,-24.761 61.074,-61.927 12.753,-38.262 12.21,-75.057 0,-124.141 -8.773,-35.34 -25.529,-61.928 -61.074,-61.928 h -45.841 z m -68.618,294.548 c 12.662,0 22.92,10.375 22.92,23.205 0,12.876 -10.258,23.348 -22.92,23.348 -12.617,0 -22.92,-10.472 -22.92,-23.348 -0.001,-12.83 10.302,-23.205 22.92,-23.205 z"
       fill="#868e96"
       opacity="1"
       data-original="#000000"
       class=""
       id="path4" /></g></svg>
