<?xml version="1.0" encoding="UTF-8" standalone="no"?>
<svg
   version="1.1"
   width="48"
   height="48"
   x="0"
   y="0"
   viewBox="0 0 1.5874687 1.5874687"
   xml:space="preserve"
   class=""
   id="svg14"
   sodipodi:docname="react.svg"
   inkscape:version="1.2.2 (b0a8486541, 2022-12-01)"
   xmlns:inkscape="http://www.inkscape.org/namespaces/inkscape"
   xmlns:sodipodi="http://sodipodi.sourceforge.net/DTD/sodipodi-0.dtd"
   xmlns="http://www.w3.org/2000/svg"
   xmlns:svg="http://www.w3.org/2000/svg"><defs
     id="defs18" /><sodipodi:namedview
     id="namedview16"
     pagecolor="#ffffff"
     bordercolor="#000000"
     borderopacity="0.25"
     inkscape:showpageshadow="2"
     inkscape:pageopacity="0.0"
     inkscape:pagecheckerboard="0"
     inkscape:deskcolor="#d1d1d1"
     showgrid="false"
     inkscape:zoom="11.346854"
     inkscape:cx="69.799081"
     inkscape:cy="40.319545"
     inkscape:window-width="2560"
     inkscape:window-height="1372"
     inkscape:window-x="0"
     inkscape:window-y="0"
     inkscape:window-maximized="1"
     inkscape:current-layer="svg14" /><g
     id="g12"
     transform="matrix(0.10697228,0,0,0.10697228,-0.21394453,-0.18612282)"><g
       fill="#3b3c3d"
       id="g10"><path
         d="m 9.42,7.57 c -0.875,0 -1.59,0.715 -1.59,1.59 0,0.875 0.715,1.59 1.59,1.59 0.875,0 1.59,-0.715 1.59,-1.59 0,-0.875 -0.715,-1.59 -1.59,-1.59 z"
         fill="#868e96"
         opacity="1"
         data-original="#3b3c3d"
         id="path2" /><path
         d="m 2,9.16 c 0,0.49 0.246,0.943 0.643,1.326 0.397,0.382 0.948,0.708 1.618,0.98 1.338,0.546 3.154,0.874 5.159,0.874 2.005,0 3.82,-0.328 5.16,-0.874 0.668,-0.272 1.22,-0.598 1.617,-0.98 C 16.593,10.103 16.84,9.65 16.84,9.16 16.84,8.67 16.593,8.216 16.197,7.834 15.8,7.452 15.248,7.126 14.579,6.854 13.241,6.308 11.425,5.98 9.419,5.98 7.413,5.98 5.599,6.308 4.261,6.853 3.591,7.126 3.04,7.452 2.643,7.834 2.246,8.216 2,8.67 2,9.16 Z m 0.53,0 C 2.53,8.846 2.684,8.532 3.012,8.216 3.339,7.901 3.835,7.6 4.461,7.345 5.712,6.835 7.473,6.511 9.42,6.511 c 1.947,0 3.708,0.324 4.959,0.834 0.625,0.255 1.122,0.556 1.449,0.871 0.327,0.316 0.481,0.63 0.481,0.944 0,0.314 -0.154,0.628 -0.481,0.943 -0.327,0.315 -0.824,0.617 -1.45,0.872 -1.25,0.51 -3.012,0.834 -4.958,0.834 -1.946,0 -3.708,-0.324 -4.96,-0.834 C 3.835,10.72 3.339,10.418 3.012,10.103 2.684,9.788 2.53,9.474 2.53,9.16 Z"
         fill="#868e96"
         opacity="1"
         data-original="#3b3c3d"
         id="path4" /><path
         d="m 13.288,15.853 c 0.427,-0.246 0.69,-0.697 0.812,-1.245 0.122,-0.548 0.116,-1.206 0.003,-1.944 C 13.875,11.186 13.212,9.385 12.166,7.576 11.12,5.767 9.891,4.293 8.724,3.357 8.141,2.889 7.573,2.555 7.037,2.387 6.501,2.219 5.979,2.221 5.552,2.467 5.125,2.713 4.862,3.164 4.74,3.711 4.618,4.259 4.624,4.918 4.737,5.656 c 0.228,1.478 0.892,3.279 1.937,5.088 1.045,1.809 2.275,3.283 3.442,4.219 0.583,0.467 1.151,0.802 1.687,0.97 0.536,0.168 1.058,0.166 1.485,-0.08 z m -0.266,-0.46 c -0.267,0.155 -0.617,0.173 -1.06,0.034 -0.445,-0.14 -0.966,-0.438 -1.514,-0.878 C 9.352,13.671 8.151,12.239 7.134,10.479 6.116,8.718 5.475,6.963 5.262,5.576 5.155,4.882 5.156,4.282 5.258,3.828 5.359,3.374 5.55,3.081 5.818,2.927 6.085,2.773 6.434,2.754 6.878,2.893 c 0.444,0.14 0.966,0.438 1.514,0.877 1.095,0.879 2.296,2.31 3.314,4.072 1.017,1.76 1.658,3.515 1.872,4.902 0.107,0.694 0.105,1.295 0.003,1.748 -0.101,0.454 -0.291,0.747 -0.559,0.901 z"
         fill="#868e96"
         opacity="1"
         data-original="#3b3c3d"
         id="path6" /><path
         d="M 5.552,15.853 C 5.125,15.607 4.862,15.156 4.74,14.608 4.617,14.061 4.623,13.403 4.737,12.664 4.965,11.187 5.628,9.384 6.674,7.576 7.719,5.767 8.949,4.292 10.116,3.356 c 0.583,-0.467 1.15,-0.801 1.687,-0.97 0.536,-0.167 1.058,-0.165 1.485,0.081 0.427,0.246 0.69,0.697 0.812,1.244 0.122,0.548 0.116,1.206 0.002,1.945 -0.227,1.477 -0.89,3.279 -1.936,5.087 -1.046,1.81 -2.276,3.285 -3.443,4.22 -0.583,0.468 -1.15,0.802 -1.686,0.97 -0.536,0.168 -1.058,0.166 -1.485,-0.08 z m 0.266,-0.46 c 0.267,0.155 0.616,0.173 1.06,0.034 0.444,-0.139 0.966,-0.438 1.514,-0.878 1.095,-0.878 2.297,-2.31 3.314,-4.07 C 12.724,8.718 13.364,6.963 13.578,5.576 13.685,4.882 13.684,4.281 13.582,3.827 13.481,3.374 13.29,3.081 13.022,2.927 12.755,2.772 12.406,2.754 11.962,2.893 11.518,3.032 10.996,3.331 10.448,3.77 9.352,4.649 8.152,6.08 7.134,7.841 c -1.018,1.76 -1.659,3.516 -1.872,4.903 -0.107,0.694 -0.106,1.295 -0.004,1.749 0.101,0.453 0.292,0.746 0.56,0.9 z"
         fill="#868e96"
         opacity="1"
         data-original="#3b3c3d"
         id="path8" /></g></g></svg>
