<?xml version="1.0" encoding="UTF-8" standalone="no"?>
<svg
   id="Bold"
   enable-background="new 0 0 24 24"
   height="40"
   viewBox="0 0 1.875 1.875"
   width="40"
   version="1.1"
   sodipodi:docname="stack-overflow.svg"
   inkscape:version="1.2.2 (b0a8486541, 2022-12-01)"
   xmlns:inkscape="http://www.inkscape.org/namespaces/inkscape"
   xmlns:sodipodi="http://sodipodi.sourceforge.net/DTD/sodipodi-0.dtd"
   xmlns="http://www.w3.org/2000/svg"
   xmlns:svg="http://www.w3.org/2000/svg">
  <defs
     id="defs19" />
  <sodipodi:namedview
     id="namedview17"
     pagecolor="#ffffff"
     bordercolor="#000000"
     borderopacity="0.25"
     inkscape:showpageshadow="2"
     inkscape:pageopacity="0.0"
     inkscape:pagecheckerboard="0"
     inkscape:deskcolor="#d1d1d1"
     showgrid="false"
     inkscape:zoom="2.0058594"
     inkscape:cx="253.25803"
     inkscape:cy="256.49854"
     inkscape:window-width="2560"
     inkscape:window-height="1372"
     inkscape:window-x="0"
     inkscape:window-y="0"
     inkscape:window-maximized="1"
     inkscape:current-layer="Bold" />
  <path
     d="m 17.373,14.358 -0.001,-0.001 -0.001,0.001 z"
     id="path8" />
  <g
     id="g4579"
     transform="scale(0.078125)">
    <circle
       style="fill:#e7700d;fill-opacity:1;fill-rule:evenodd;stroke-width:122.485;paint-order:markers stroke fill"
       id="path300"
       cx="12"
       cy="-12"
       transform="scale(1,-1)"
       r="12" />
    <g
       id="g2379"
       transform="matrix(0.5894421,0,0,0.5894421,4.9266948,4.9266948)"
       style="fill:#ffffff;fill-opacity:1">
      <path
         d="M 6.444,14.839 16.782,17.035 17.215,14.946 6.877,12.734 Z"
         id="path2"
         style="fill:#ffffff;fill-opacity:1" />
      <path
         d="m 6.215,17.571 h 10.566 v 2.127 H 6.215 Z"
         id="path4"
         style="fill:#ffffff;fill-opacity:1" />
      <path
         d="m 7.8,9.831 9.572,4.526 0.887,-1.944 -9.577,-4.538 z"
         id="path6"
         style="fill:#ffffff;fill-opacity:1" />
      <path
         d="M 2,15.429 V 24 h 18.992 v -8.571 h -2.113 v 6.428 H 4.113 v -6.428 z"
         id="path10"
         style="fill:#ffffff;fill-opacity:1" />
      <path
         d="m 10.453,5.063 8.109,6.873 1.346,-1.65 -8.109,-6.873 z"
         id="path12"
         style="fill:#ffffff;fill-opacity:1" />
      <path
         d="M 22,8.587 15.698,0 14.007,1.286 20.309,9.873 Z"
         id="path14"
         style="fill:#ffffff;fill-opacity:1" />
    </g>
  </g>
</svg>
