<?xml version="1.0" encoding="UTF-8" standalone="no"?>
<svg
   version="1.1"
   width="48"
   height="48"
   x="0"
   y="0"
   viewBox="0 0 48 48"
   xml:space="preserve"
   class=""
   id="svg6"
   sodipodi:docname="swift.svg"
   inkscape:version="1.2.2 (b0a8486541, 2022-12-01)"
   xmlns:inkscape="http://www.inkscape.org/namespaces/inkscape"
   xmlns:sodipodi="http://sodipodi.sourceforge.net/DTD/sodipodi-0.dtd"
   xmlns="http://www.w3.org/2000/svg"
   xmlns:svg="http://www.w3.org/2000/svg"><defs
     id="defs10" /><sodipodi:namedview
     id="namedview8"
     pagecolor="#ffffff"
     bordercolor="#000000"
     borderopacity="0.25"
     inkscape:showpageshadow="2"
     inkscape:pageopacity="0.0"
     inkscape:pagecheckerboard="0"
     inkscape:deskcolor="#d1d1d1"
     showgrid="false"
     inkscape:zoom="2.0058594"
     inkscape:cx="253.25803"
     inkscape:cy="256.49854"
     inkscape:window-width="2560"
     inkscape:window-height="1372"
     inkscape:window-x="0"
     inkscape:window-y="0"
     inkscape:window-maximized="1"
     inkscape:current-layer="svg6" /><g
     id="g4"
     transform="scale(0.09375)"><path
       d="M 478.64,33.6 C 453.59,8.55 420.31,0.24 385.81,0.24 H 126.18 C 92.28,0.24 57.9,8.58 33.36,33.12 8.06,58.42 1.43,91.52 0,125.95 v 259.62 c 0,32.93 8.29,69.24 33.36,92.83 25.05,25.05 58.33,33.36 92.83,33.36 h 259.62 c 46.71,0 89.43,-18.22 112.65,-60.44 C 509.25,431.71 512,407.62 512,385.57 V 126.43 C 512,93.11 503.99,57.46 478.64,33.6 Z m -47.86,384.85 c -23.21,-44.48 -65.76,-33.36 -87.51,-22.24 -1.94,0.96 -3.87,2.41 -5.8,3.38 -44.96,24.17 -106.37,26.11 -167.29,0 C 118.93,377.35 76.87,339.64 49.8,296.13 c 14.02,10.15 29.01,19.34 44.96,26.59 64.3,30.46 129.09,28.04 175.02,0 C 204.51,272.44 149.88,207.17 108.3,153.99 100.56,144.8 93.31,134.65 87.03,124.49 137.31,169.94 216.11,227.48 244.64,243.43 184.69,180.09 131.51,101.77 133.92,104.19 c 94.76,95.24 182.27,149.39 182.27,149.39 3.39,1.45 5.8,2.9 7.74,4.35 1.93,-4.83 3.38,-9.67 4.83,-14.5 14.99,-55.12 -1.93,-118.45 -40.61,-170.67 87.99,52.7 139.73,153.26 118.45,237.87 -0.48,1.94 -0.96,3.87 -1.45,5.8 44.48,54.15 32.39,112.17 25.63,102.02 z"
       fill="#868e96"
       opacity="1"
       data-original="#000000"
       class=""
       id="path2" /></g></svg>
